<svg viewBox="0 0 24 24" fill="none" xmlns="http://www.w3.org/2000/svg">
    <rect width="24" height="24" rx="2" fill="#1977F3"/>
    <path fill-rule="evenodd" clip-rule="evenodd" d="M20.035 12.049C20.035 7.604 16.44 4 12.003 4 7.566 4 3.97 7.604 3.97 12.049A8.046 8.046 0 0 0 10.748 20v-5.624h-2.04v-2.327h2.04v-1.773c0-2.018 1.199-3.132 3.034-3.132.879 0 1.798.157 1.798.157v1.981h-1.013c-.998 0-1.31.62-1.31 1.257v1.51h2.229l-.356 2.327h-1.872V20a8.046 8.046 0 0 0 6.777-7.951z" fill="#FFFFFE"/>
</svg>
