<svg width="522" height="284" viewBox="0 0 522 284" fill="none" xmlns="http://www.w3.org/2000/svg">
<path d="M441.015 233.288C441.015 226.383 446.613 220.785 453.519 220.785H508.533C515.439 220.785 521.036 226.383 521.036 233.288C521.036 240.193 515.439 245.791 508.533 245.791H453.519C446.613 245.791 441.015 240.193 441.015 233.288Z" fill="#612ACE"/>
<path d="M441.015 233.288C441.015 226.383 446.613 220.785 453.519 220.785H508.533C515.439 220.785 521.036 226.383 521.036 233.288C521.036 240.193 515.439 245.791 508.533 245.791H453.519C446.613 245.791 441.015 240.193 441.015 233.288Z" fill="url(#paint0_radial)" fill-opacity="0.9"/>
<path d="M441.015 233.288C441.015 226.383 446.613 220.785 453.519 220.785H508.533C515.439 220.785 521.036 226.383 521.036 233.288C521.036 240.193 515.439 245.791 508.533 245.791H453.519C446.613 245.791 441.015 240.193 441.015 233.288Z" fill="url(#paint1_radial)" fill-opacity="0.56"/>
<path d="M1.84521 132.438C0.92449 132.438 0.178101 131.692 0.178101 130.771V8.31833C0.178101 7.56266 0.686375 6.9015 1.41664 6.70724L23.1506 0.925755C24.2087 0.644282 25.2463 1.44192 25.2463 2.53683V54.0665C31.3741 46.6824 39.5073 42.9903 49.646 42.9903C59.0048 42.9903 66.9709 46.1789 73.5443 52.5561C80.0063 58.9332 83.2373 66.8767 83.2373 76.3865V130.771C83.2373 131.692 82.4909 132.438 81.5702 132.438H60.0034C59.0827 132.438 58.3363 131.692 58.3363 130.771V83.0992C58.3363 78.2884 56.7208 74.3167 53.4898 71.1841C50.3702 67.9396 46.4707 66.3173 41.7913 66.3173C37.1119 66.3173 33.1567 67.9396 29.9257 71.1841C26.8061 74.3167 25.2463 78.2884 25.2463 83.0992V130.771C25.2463 131.692 24.4999 132.438 23.5792 132.438H1.84521Z" fill="#262626"/>
<path d="M105.391 121.53C96.5895 112.691 92.1887 101.783 92.1887 88.8051C92.1887 75.827 96.5895 64.9747 105.391 56.2481C114.193 47.4096 125.279 42.9903 138.648 42.9903C151.907 42.9903 162.937 47.4096 171.738 56.2481C180.651 64.9747 185.108 75.827 185.108 88.8051C185.108 101.671 180.651 112.58 171.738 121.53C162.825 130.257 151.795 134.62 138.648 134.62C125.279 134.62 114.193 130.257 105.391 121.53ZM138.648 109.783C144.442 109.783 149.233 107.769 153.021 103.741C157.032 99.6015 159.037 94.6228 159.037 88.8051C159.037 82.9873 157.032 78.0647 153.021 74.037C149.233 69.8974 144.442 67.8277 138.648 67.8277C132.855 67.8277 128.008 69.8415 124.109 73.8691C120.209 78.0087 118.26 82.9873 118.26 88.8051C118.26 94.6228 120.209 99.6015 124.109 103.741C128.008 107.769 132.855 109.783 138.648 109.783Z" fill="#262626"/>
<path d="M219.022 130.771C219.022 131.692 218.275 132.438 217.355 132.438H195.621C194.7 132.438 193.954 131.692 193.954 130.771V46.8391C193.954 45.9184 194.7 45.172 195.621 45.172H217.355C218.275 45.172 219.022 45.9184 219.022 46.8391V53.0595C224.815 46.3467 232.336 42.9903 241.583 42.9903C252.947 42.9903 261.749 47.4655 267.988 56.4159C273.67 47.4655 282.361 42.9903 294.059 42.9903C303.418 42.9903 311.384 46.123 317.958 52.3883C324.42 58.5416 327.651 66.2054 327.651 75.3795V130.771C327.651 131.692 326.904 132.438 325.983 132.438H304.249C303.329 132.438 302.582 131.692 302.582 130.771V82.0923C302.582 77.6171 301.19 73.8692 298.404 70.8484C295.619 67.8277 292.165 66.3173 288.043 66.3173C283.921 66.3173 280.411 67.8277 277.514 70.8484C274.729 73.8692 273.336 77.6171 273.336 82.0923V130.771C273.336 131.692 272.59 132.438 271.669 132.438H249.935C249.014 132.438 248.268 131.692 248.268 130.771V82.0923C248.268 77.6171 246.875 73.8692 244.09 70.8484C241.305 67.8277 237.851 66.3173 233.728 66.3173C229.606 66.3173 226.097 67.8277 223.2 70.8484C220.414 73.8692 219.022 77.6171 219.022 82.0923V130.771Z" fill="#262626"/>
<path d="M427.639 97.8674H362.963C364.411 102.454 367.029 106.146 370.817 108.943C374.605 111.74 379.062 113.139 384.187 113.139C390.94 113.139 396.444 110.831 400.698 106.215C401.137 105.739 401.8 105.527 402.425 105.696L423.397 111.36C424.437 111.641 424.942 112.821 424.38 113.74C420.478 120.117 415.315 124.52 408.587 128.411C401.345 132.55 393.156 134.62 384.02 134.62C370.427 134.62 359.119 130.257 350.094 121.53C341.07 112.803 336.557 101.895 336.557 88.8051C336.557 75.827 340.958 64.9747 349.76 56.2481C358.562 47.4096 369.536 42.9903 382.683 42.9903C395.718 42.9903 406.637 47.4096 415.439 56.2481C424.24 64.9747 428.641 75.827 428.641 88.8051C428.641 91.9377 428.307 94.9585 427.639 97.8674ZM363.13 79.2394H403.072C401.512 74.7642 398.894 71.1841 395.217 68.4989C391.54 65.8138 387.362 64.4713 382.683 64.4713C378.226 64.4713 374.215 65.8138 370.65 68.4989C367.085 71.1841 364.578 74.7642 363.13 79.2394Z" fill="#262626"/>
<path d="M58.5268 142.073C58.5268 141.152 59.2732 140.406 60.1939 140.406H81.8672C82.7879 140.406 83.5343 141.152 83.5343 142.073V157.274H101.54C102.46 157.274 103.207 158.02 103.207 158.941V177.318C103.207 178.239 102.46 178.985 101.54 178.985H83.5343V211.552C83.5343 214.224 84.4234 216.451 86.2017 218.232C87.98 219.903 90.2585 220.738 93.0371 220.738H101.54C102.46 220.738 103.207 221.484 103.207 222.405V242.452C103.207 243.373 102.46 244.119 101.54 244.119H88.8692C80.3111 244.119 73.0867 241.503 67.1961 236.27C61.4166 230.925 58.5268 224.3 58.5268 216.395V142.073Z" fill="#262626"/>
<path d="M121.824 233.263C113.044 224.468 108.654 213.612 108.654 200.696C108.654 187.781 113.044 176.981 121.824 168.296C130.605 159.5 141.663 155.103 155.001 155.103C168.227 155.103 179.23 159.5 188.011 168.296C196.902 176.981 201.348 187.781 201.348 200.696C201.348 213.5 196.902 224.356 188.011 233.263C179.119 241.948 168.116 246.29 155.001 246.29C141.663 246.29 130.605 241.948 121.824 233.263ZM155.001 221.573C160.78 221.573 165.559 219.569 169.338 215.56C173.34 211.441 175.34 206.486 175.34 200.696C175.34 194.907 173.34 190.008 169.338 185.999C165.559 181.88 160.78 179.82 155.001 179.82C149.221 179.82 144.386 181.824 140.496 185.832C136.606 189.952 134.661 194.907 134.661 200.696C134.661 206.486 136.606 211.441 140.496 215.56C144.386 219.569 149.221 221.573 155.001 221.573Z" fill="#262626"/>
<path d="M237.407 200.749C237.407 187.684 241.308 176.889 249.109 168.364C256.91 159.728 266.718 155.41 278.531 155.41C287.447 155.41 295.471 158.067 302.604 163.381V159.236C302.604 158.315 303.35 157.569 304.271 157.569H325.845C326.766 157.569 327.512 158.315 327.512 159.236V242.103C327.512 253.949 323.277 263.748 314.807 271.498C306.449 279.47 296.028 283.456 283.546 283.456C273.516 283.456 264.544 280.91 256.632 275.816C249.197 270.995 244.106 265.127 241.359 258.214C241.005 257.322 241.533 256.34 242.46 256.09L263.971 250.29C264.735 250.084 265.532 250.447 265.946 251.121C267.369 253.435 269.588 255.799 272.346 257.216C275.578 258.987 279.144 259.873 283.045 259.873C288.506 259.873 293.131 258.212 296.92 254.891C300.709 251.569 302.604 247.417 302.604 242.435V237.951C295.694 243.376 287.67 246.088 278.531 246.088C266.718 246.088 256.91 241.77 249.109 233.134C241.308 224.387 237.407 213.592 237.407 200.749ZM282.877 179.989C277.417 179.989 272.792 181.982 269.002 185.968C265.325 189.954 263.486 194.936 263.486 200.915C263.486 206.672 265.325 211.544 269.002 215.53C272.792 219.516 277.417 221.509 282.877 221.509C288.227 221.509 292.796 219.516 296.585 215.53C300.375 211.655 302.269 206.783 302.269 200.915C302.269 194.936 300.375 189.954 296.585 185.968C292.796 181.982 288.227 179.989 282.877 179.989Z" fill="#262626"/>
<path d="M349.734 233.134C340.93 224.387 336.527 213.592 336.527 200.749C336.527 187.906 340.93 177.166 349.734 168.53C358.538 159.783 369.627 155.41 383.001 155.41C396.263 155.41 407.296 159.783 416.101 168.53C425.016 177.166 429.474 187.906 429.474 200.749C429.474 213.482 425.016 224.277 416.101 233.134C407.185 241.77 396.152 246.088 383.001 246.088C369.627 246.088 358.538 241.77 349.734 233.134ZM383.001 221.509C388.796 221.509 393.588 219.516 397.378 215.53C401.39 211.433 403.396 206.506 403.396 200.749C403.396 194.992 401.39 190.12 397.378 186.134C393.588 182.037 388.796 179.989 383.001 179.989C377.206 179.989 372.358 181.982 368.457 185.968C364.556 190.065 362.606 194.992 362.606 200.749C362.606 206.506 364.556 211.433 368.457 215.53C372.358 219.516 377.206 221.509 383.001 221.509Z" fill="#262626"/>
<defs>
<radialGradient id="paint0_radial" cx="0" cy="0" r="1" gradientUnits="userSpaceOnUse" gradientTransform="translate(493.41 251.371) rotate(-91.3745) scale(30.5105 62.518)">
<stop stop-color="#FFD458"/>
<stop offset="0.985981" stop-color="#FFD458" stop-opacity="0"/>
</radialGradient>
<radialGradient id="paint1_radial" cx="0" cy="0" r="1" gradientUnits="userSpaceOnUse" gradientTransform="translate(505.62 252.146) rotate(-93.2397) scale(20.5766 50.054)">
<stop stop-color="#FFB4AE"/>
<stop offset="1" stop-color="#FFB4AE" stop-opacity="0"/>
</radialGradient>
</defs>
</svg>
