<svg width="522" height="284" viewBox="0 0 522 284" fill="none" xmlns="http://www.w3.org/2000/svg">
    <path fill-rule="evenodd" clip-rule="evenodd" d="M0.969727 130.467C0.969727 131.388 1.71612 132.134 2.63683 132.134H24.3708C25.2915 132.134 26.0379 131.388 26.0379 130.467V82.7955C26.0379 77.9846 27.5977 74.0129 30.7173 70.8803C33.9483 67.6358 37.9035 66.0135 42.5829 66.0135C47.2623 66.0135 51.1618 67.6358 54.2814 70.8803C57.5124 74.0129 59.1279 77.9846 59.1279 82.7955V130.467C59.1279 131.388 59.8743 132.134 60.795 132.134H82.3618C83.2826 132.134 84.029 131.388 84.029 130.467V76.0827C84.029 66.5729 80.7979 58.6294 74.3359 52.2523C67.7625 45.8751 59.7964 42.6865 50.4376 42.6865C40.2989 42.6865 32.1657 46.3786 26.0379 53.7627V2.23308C26.0379 1.13816 25.0004 0.340526 23.9422 0.621998L2.20827 6.40348C1.478 6.59774 0.969727 7.25891 0.969727 8.01457V130.467ZM92.9803 88.5013C92.9803 101.479 97.3811 112.388 106.183 121.226C114.985 129.953 126.07 134.316 139.44 134.316C152.587 134.316 163.617 129.953 172.53 121.226C181.443 112.276 185.9 101.368 185.9 88.5013C185.9 75.5233 181.443 64.671 172.53 55.9444C163.728 47.1058 152.698 42.6865 139.44 42.6865C126.07 42.6865 114.985 47.1058 106.183 55.9444C97.3811 64.671 92.9803 75.5233 92.9803 88.5013ZM153.812 103.437C150.024 107.465 145.234 109.479 139.44 109.479C133.646 109.479 128.8 107.465 124.9 103.437C121.001 99.2977 119.051 94.3191 119.051 88.5013C119.051 82.6836 121.001 77.7049 124.9 73.5654C128.8 69.5377 133.646 67.5239 139.44 67.5239C145.234 67.5239 150.024 69.5937 153.812 73.7332C157.823 77.7609 159.829 82.6836 159.829 88.5013C159.829 94.3191 157.823 99.2977 153.812 103.437ZM219.813 130.467C219.813 131.388 219.067 132.134 218.146 132.134H196.412C195.492 132.134 194.745 131.388 194.745 130.467V46.5354C194.745 45.6146 195.492 44.8683 196.412 44.8683H218.146C219.067 44.8683 219.813 45.6146 219.813 46.5354V52.7558C225.607 46.043 233.127 42.6865 242.375 42.6865C253.739 42.6865 262.541 47.1618 268.78 56.1122C274.462 47.1618 283.152 42.6865 294.851 42.6865C304.21 42.6865 312.176 45.8192 318.749 52.0845C325.211 58.2379 328.442 65.9016 328.442 75.0758V130.467C328.442 131.388 327.696 132.134 326.775 132.134H305.041C304.12 132.134 303.374 131.388 303.374 130.467V81.7886C303.374 77.3134 301.981 73.5654 299.196 70.5446C296.411 67.5239 292.957 66.0135 288.834 66.0135C284.712 66.0135 281.203 67.5239 278.306 70.5446C275.52 73.5654 274.128 77.3134 274.128 81.7886V130.467C274.128 131.388 273.381 132.134 272.461 132.134H250.727C249.806 132.134 249.06 131.388 249.06 130.467V81.7886C249.06 77.3134 247.667 73.5654 244.882 70.5446C242.096 67.5239 238.642 66.0135 234.52 66.0135C230.398 66.0135 226.888 67.5239 223.991 70.5446C221.206 73.5654 219.813 77.3134 219.813 81.7886V130.467ZM363.754 97.5636H428.43C429.099 94.6548 429.433 91.634 429.433 88.5013C429.433 75.5233 425.032 64.671 416.23 55.9444C407.429 47.1058 396.51 42.6865 383.475 42.6865C370.328 42.6865 359.353 47.1058 350.552 55.9444C341.75 64.671 337.349 75.5233 337.349 88.5013C337.349 101.591 341.861 112.5 350.886 121.226C359.91 129.953 371.219 134.316 384.812 134.316C393.948 134.316 402.136 132.246 409.378 128.107C416.107 124.217 421.27 119.813 425.172 113.436C425.734 112.517 425.228 111.337 424.189 111.057L403.216 105.392C402.591 105.223 401.929 105.436 401.49 105.912C397.235 110.527 391.732 112.835 384.979 112.835C379.854 112.835 375.397 111.437 371.609 108.64C367.821 105.843 365.203 102.151 363.754 97.5636ZM403.863 78.9356H363.921C365.37 74.4604 367.877 70.8803 371.442 68.1952C375.007 65.5101 379.018 64.1675 383.475 64.1675C388.154 64.1675 392.332 65.5101 396.009 68.1952C399.685 70.8803 402.304 74.4604 403.863 78.9356ZM59.3185 141.769C59.3185 140.848 60.0648 140.102 60.9856 140.102H82.6588C83.5795 140.102 84.3259 140.848 84.3259 141.769V156.97H102.331C103.252 156.97 103.998 157.716 103.998 158.637V177.014C103.998 177.935 103.252 178.681 102.331 178.681H84.3259V211.248C84.3259 213.92 85.215 216.147 86.9934 217.929C88.7717 219.599 91.0501 220.434 93.8287 220.434H102.331C103.252 220.434 103.998 221.18 103.998 222.101V242.148C103.998 243.069 103.252 243.815 102.331 243.815H89.6608C81.1027 243.815 73.8783 241.199 67.9877 235.966C62.2082 230.621 59.3185 223.997 59.3185 216.092V141.769ZM109.445 200.393C109.445 213.308 113.835 224.164 122.616 232.96C131.396 241.644 142.455 245.986 155.792 245.986C168.907 245.986 179.911 241.644 188.802 232.96C197.694 224.052 202.14 213.197 202.14 200.393C202.14 187.477 197.694 176.677 188.802 167.993C180.022 159.197 169.019 154.799 155.792 154.799C142.455 154.799 131.396 159.197 122.616 167.993C113.835 176.677 109.445 187.477 109.445 200.393ZM170.13 215.257C166.351 219.265 161.572 221.269 155.792 221.269C150.013 221.269 145.178 219.265 141.288 215.257C137.398 211.137 135.453 206.182 135.453 200.393C135.453 194.603 137.398 189.648 141.288 185.529C145.178 181.52 150.013 179.516 155.792 179.516C161.572 179.516 166.351 181.576 170.13 185.696C174.131 189.704 176.132 194.603 176.132 200.393C176.132 206.182 174.131 211.137 170.13 215.257ZM238.199 200.445C238.199 187.38 242.099 176.585 249.901 168.06C257.702 159.424 267.509 155.106 279.323 155.106C288.238 155.106 296.263 157.763 303.395 163.078V158.932C303.395 158.011 304.142 157.265 305.062 157.265H326.637C327.557 157.265 328.304 158.011 328.304 158.932V241.799C328.304 253.646 324.069 263.444 315.599 271.195C307.24 279.166 296.82 283.152 284.338 283.152C274.308 283.152 265.336 280.606 257.423 275.513C249.988 270.691 244.897 264.823 242.151 257.91C241.796 257.018 242.325 256.037 243.252 255.787L264.763 249.986C265.527 249.78 266.323 250.144 266.738 250.818C268.161 253.131 270.38 255.495 273.137 256.912C276.369 258.683 279.936 259.569 283.836 259.569C289.297 259.569 293.922 257.908 297.711 254.587C301.501 251.265 303.395 247.113 303.395 242.131V237.647C296.486 243.072 288.461 245.785 279.323 245.785C267.509 245.785 257.702 241.467 249.901 232.831C242.099 224.084 238.199 213.289 238.199 200.445ZM283.669 179.685C278.208 179.685 273.583 181.678 269.794 185.664C266.116 189.65 264.277 194.632 264.277 200.611C264.277 206.369 266.116 211.24 269.794 215.226C273.583 219.212 278.208 221.205 283.669 221.205C289.019 221.205 293.588 219.212 297.377 215.226C301.166 211.351 303.061 206.479 303.061 200.611C303.061 194.632 301.166 189.65 297.377 185.664C293.588 181.678 289.019 179.685 283.669 179.685ZM337.319 200.445C337.319 213.289 341.721 224.084 350.526 232.831C359.33 241.467 370.419 245.785 383.793 245.785C396.943 245.785 407.977 241.467 416.892 232.831C425.808 223.973 430.266 213.178 430.266 200.445C430.266 187.602 425.808 176.862 416.892 168.226C408.088 159.479 397.055 155.106 383.793 155.106C370.419 155.106 359.33 159.479 350.526 168.226C341.721 176.862 337.319 187.602 337.319 200.445ZM398.169 215.226C394.38 219.212 389.588 221.205 383.793 221.205C377.997 221.205 373.149 219.212 369.249 215.226C365.348 211.13 363.398 206.203 363.398 200.445C363.398 194.688 365.348 189.761 369.249 185.664C373.149 181.678 377.997 179.685 383.793 179.685C389.588 179.685 394.38 181.734 398.169 185.83C402.181 189.816 404.187 194.688 404.187 200.445C404.187 206.203 402.181 211.13 398.169 215.226ZM454.31 220.481C447.405 220.481 441.807 226.079 441.807 232.984C441.807 239.89 447.405 245.487 454.31 245.487H509.325C516.23 245.487 521.828 239.89 521.828 232.984C521.828 226.079 516.23 220.481 509.325 220.481H454.31Z" fill="white"/>
</svg>
